{
	"asset":{
		"version":"2.0",
		"generator":"Created using the official Cinema 4D glTF Exporter 1.000x284978"
	},
	"scenes":[{
		"nodes":[0]
	}],
	"buffers":[{
		"uri":"data:application/octet-stream;base64,",
		"byteLength":212128
	}],
	"nodes":[{
		"name":"Surface de Subdivision",
		"children":[1]
	},
	{
		"name":"Sphre",
		"mesh":0
	}],
	"meshes":[{
		"name":"Sphre",
		"primitives":[{
			"attributes":{
				"POSITION":1,
				"NORMAL":2,
				"TEXCOORD_0":3
			},
			"indices":0,
			"material":0
		}]
	}],
	"accessors":[{
		"bufferView":0,
		"type":"SCALAR",
		"componentType":5123,
		"byteOffset":0,
		"count":28032,
		"min":[0],
		"max":[4876]
	},
	{
		"bufferView":1,
		"type":"VEC3",
		"componentType":5126,
		"byteOffset":0,
		"count":4877,
		"min":[-96.18685913085938,
		-99.37291717529297,
		-96.96442413330078],
		"max":[97.09040832519531,
		99.37291717529297,
		97.09041595458985]
	},
	{
		"bufferView":1,
		"type":"VEC3",
		"componentType":5126,
		"byteOffset":12,
		"count":4877,
		"min":[-0.9999999403953552,
		-1.0,
		-1.0],
		"max":[0.9999957084655762,
		1.0,
		0.999995768070221]
	},
	{
		"bufferView":1,
		"type":"VEC2",
		"componentType":5126,
		"byteOffset":24,
		"count":4877,
		"min":[0.0,
		0.0312499962747097],
		"max":[1.0178669691085816,
		0.96875]
	}],
	"bufferViews":[{
		"buffer":0,
		"byteOffset":0,
		"byteLength":56064,
		"target":34963
	},
	{
		"buffer":0,
		"byteStride":32,
		"byteOffset":56064,
		"byteLength":156064,
		"target":34962
	}],
	"materials":[{
		"pbrMetallicRoughness":{
			"baseColorFactor":[0.8,
			0.8,
			0.8,
			1.0],
			"metallicFactor":1.0,
			"roughnessFactor":1.0
		},
		"emissiveFactor":[0.0,
		0.0,
		0.0],
		"alphaMode":"OPAQUE",
		"doubleSided":false,
		"name":"Mat"
	}]
}