{
	"asset":{
		"version":"2.0",
		"generator":"Created using the official Cinema 4D glTF Exporter 1.000x284978"
	},
	"scenes":[{
		"nodes":[0,
		1]
	}],
	"buffers":[{
		"uri":"data:application/octet-stream;base64,",
		"byteLength":52384
	},
	{
		"uri":"data:application/octet-stream;base64,",
		"byteLength":31200
	}],
	"nodes":[{
		"name":"Sphre.1",
		"mesh":0
	},
	{
		"name":"Sphre",
		"mesh":1
	}],
	"meshes":[{
		"name":"Sphre.1",
		"primitives":[{
			"attributes":{
				"POSITION":1,
				"NORMAL":2,
				"TEXCOORD_0":3
			},
			"indices":0,
			"material":0
		}]
	},
	{
		"name":"Sphre",
		"primitives":[{
			"attributes":{
				"POSITION":5,
				"NORMAL":6
			},
			"indices":4,
			"material":1
		}]
	}],
	"accessors":[{
		"bufferView":0,
		"type":"SCALAR",
		"componentType":5123,
		"byteOffset":0,
		"count":6624,
		"min":[0],
		"max":[1222]
	},
	{
		"bufferView":1,
		"type":"VEC3",
		"componentType":5126,
		"byteOffset":0,
		"count":1223,
		"min":[-161.45008850097657,
		-161.45008850097657,
		-161.45008850097657],
		"max":[161.45008850097657,
		161.45008850097657,
		161.45008850097657]
	},
	{
		"bufferView":1,
		"type":"VEC3",
		"componentType":5126,
		"byteOffset":12,
		"count":1223,
		"min":[-1.0,
		-1.0,
		-1.0],
		"max":[0.9999999403953552,
		1.0,
		1.0]
	},
	{
		"bufferView":1,
		"type":"VEC2",
		"componentType":5126,
		"byteOffset":24,
		"count":1223,
		"min":[0.000030517578125,
		0.000030517578125],
		"max":[1.0,
		1.0]
	},
	{
		"bufferView":2,
		"type":"SCALAR",
		"componentType":5123,
		"byteOffset":0,
		"count":3072,
		"min":[0],
		"max":[1043]
	},
	{
		"bufferView":3,
		"type":"VEC3",
		"componentType":5126,
		"byteOffset":0,
		"count":1044,
		"min":[-162.98269653320313,
		-163.0344696044922,
		-163.0220184326172],
		"max":[159.53965759277345,
		163.0344696044922,
		162.98220825195313]
	},
	{
		"bufferView":3,
		"type":"VEC3",
		"componentType":5126,
		"byteOffset":12,
		"count":1044,
		"min":[-0.9987030625343323,
		-1.0,
		-0.9997115731239319],
		"max":[0.9999999403953552,
		1.0,
		0.9986618161201477]
	}],
	"bufferViews":[{
		"buffer":0,
		"byteOffset":0,
		"byteLength":13248,
		"target":34963
	},
	{
		"buffer":0,
		"byteStride":32,
		"byteOffset":13248,
		"byteLength":39136,
		"target":34962
	},
	{
		"buffer":1,
		"byteOffset":0,
		"byteLength":6144,
		"target":34963
	},
	{
		"buffer":1,
		"byteStride":24,
		"byteOffset":6144,
		"byteLength":25056,
		"target":34962
	}],
	"materials":[{
		"pbrMetallicRoughness":{
			"baseColorFactor":[0.36900000000000007,
			0.7052999999999999,
			0.9,
			1.0],
			"metallicFactor":1.0,
			"roughnessFactor":1.0
		},
		"emissiveFactor":[0.0,
		0.0,
		0.0],
		"alphaMode":"OPAQUE",
		"doubleSided":false,
		"name":"Mat"
	},
	{
		"pbrMetallicRoughness":{
			"baseColorFactor":[0.3200000000000001,
			0.8,
			0.3280000000000001,
			1.0],
			"metallicFactor":1.0,
			"roughnessFactor":1.0
		},
		"emissiveFactor":[0.0,
		0.0,
		0.0],
		"alphaMode":"OPAQUE",
		"doubleSided":false,
		"name":"Mat.1"
	}]
}