{
	"asset":{
		"version":"2.0",
		"generator":"Created using the official Cinema 4D glTF Exporter 1.000x284978"
	},
	"scenes":[{
		"nodes":[0]
	}],
	"nodes":[{
		"name":"Sphère",
		"mesh":0
	}],
	"meshes":[{
		"name":"Sphère",
		"primitives":[{
			"attributes":{
				"POSITION":1,
				"TEXCOORD_0":3,
				"NORMAL":2
			},
			"indices":0
		}]
	}],
	"bufferViews":[{
		"target":34963,
		"buffer":0,
		"byteOffset":0,
		"byteLength":144
	},
	{
		"target":34962,
		"buffer":0,
		"byteOffset":144,
		"byteLength":1600,
		"byteStride":32
	}],
	"accessors":[{
		"bufferView":0,
		"type":"SCALAR",
		"componentType":5123,
		"count":72,
		"byteOffset":0,
		"min":[0],
		"max":[49]
	},
	{
		"bufferView":1,
		"type":"VEC3",
		"componentType":5126,
		"count":50,
		"byteOffset":0,
		"min":[-15.353859901428223,
		-17.729110717773439,
		-13.296833038330079],
		"max":[15.353859901428223,
		17.729110717773439,
		13.296833038330079]
	},
	{
		"bufferView":1,
		"type":"VEC3",
		"componentType":5126,
		"count":50,
		"byteOffset":12,
		"min":[-0.8660253882408142,
		-1.0,
		-1.0],
		"max":[0.8660253882408142,
		1.0,
		1.0]
	},
	{
		"bufferView":1,
		"type":"VEC2",
		"componentType":5126,
		"count":50,
		"byteOffset":24,
		"min":[0.0,
		0.0],
		"max":[1.0,
		1.0]
	}],
	"buffers":[{
		"uri":"data:application/octet-stream;base64,",
		"byteLength":1744
	}]
}