{
	"bufferViews":[{
		"buffer":0,
		"byteOffset":0,
		"byteLength":53640,
		"target":34963
	},
	{
		"buffer":0,
		"byteOffset":53640,
		"byteLength":173984,
		"target":34962,
		"byteStride":32
	},
	{
		"buffer":1,
		"byteOffset":0,
		"byteLength":43008,
		"target":34963
	},
	{
		"buffer":1,
		"byteOffset":43008,
		"byteLength":125664,
		"target":34962,
		"byteStride":32
	},
	{
		"buffer":2,
		"byteOffset":0,
		"byteLength":127872,
		"target":34963
	},
	{
		"buffer":2,
		"byteOffset":127872,
		"byteLength":357056,
		"target":34962,
		"byteStride":32
	},
	{
		"buffer":3,
		"byteOffset":0,
		"byteLength":2184,
		"target":34963
	},
	{
		"buffer":3,
		"byteOffset":2184,
		"byteLength":9536,
		"target":34962,
		"byteStride":32
	},
	{
		"buffer":4,
		"byteOffset":0,
		"byteLength":12000,
		"target":34963
	},
	{
		"buffer":4,
		"byteOffset":12000,
		"byteLength":45824,
		"target":34962,
		"byteStride":32
	}],
	"asset":{
		"version":"2.0",
		"generator":"Created using the official Cinema 4D glTF Exporter 1.000x284978"
	},
	"scenes":[{
		"nodes":[0]
	}],
	"buffers":[{
		"uri":"data:application/octet-stream;base64,",
		"byteLength":227624
	},
	{
		"uri":"data:application/octet-stream;base64,",
		"byteLength":168672
	},
	{
		"uri":"data:application/octet-stream;base64,",
		"byteLength":484928
	},
	{
		"uri":"data:application/octet-stream;base64,",
		"byteLength":11720
	},
	{
		"uri":"data:application/octet-stream;base64,",
		"byteLength":57824
	}],
	"nodes":[{
		"name":"Satlite",
		"translation":[0.0,
		30.0,
		0.0],
		"rotation":[0.0,
		0.0,
		0.0,
		-1.0],
		"scale":[1.0,
		1.0,
		1.0],
		"mesh":0,
		"children":[1,
		2,
		3,
		4]
	},
	{
		"name":"Tore.6",
		"translation":[0.0,
		19.453088760375978,
		0.0],
		"rotation":[0.0,
		0.0,
		0.0,
		-1.0],
		"scale":[1.0,
		1.0,
		1.0],
		"mesh":1
	},
	{
		"name":"Antne",
		"translation":[1.1319272274590113e-14,
		74.0669174194336,
		0.0],
		"rotation":[0.0,
		0.0,
		0.0,
		-1.0],
		"scale":[1.0,
		1.0,
		1.0],
		"mesh":2
	},
	{
		"name":"Panneau",
		"translation":[0.0,
		31.781787872314454,
		13.038555145263672],
		"rotation":[0.0,
		0.0,
		0.0,
		-1.0],
		"scale":[1.0,
		1.0,
		1.0],
		"mesh":3
	},
	{
		"name":"PanneauxSolaires",
		"translation":[0.0,
		17.73113441467285,
		0.0],
		"rotation":[0.0,
		0.0,
		0.0,
		-1.0],
		"scale":[1.0,
		1.0,
		1.0],
		"mesh":4
	}],
	"meshes":[{
		"name":"Satlite",
		"primitives":[{
			"attributes":{
				"POSITION":1,
				"NORMAL":2,
				"TEXCOORD_0":3
			},
			"indices":0
		}]
	},
	{
		"name":"Tore.6",
		"primitives":[{
			"attributes":{
				"POSITION":5,
				"NORMAL":6,
				"TEXCOORD_0":7
			},
			"indices":4
		}]
	},
	{
		"name":"Antne",
		"primitives":[{
			"attributes":{
				"POSITION":9,
				"NORMAL":10,
				"TEXCOORD_0":11
			},
			"indices":8
		}]
	},
	{
		"name":"Panneau",
		"primitives":[{
			"attributes":{
				"POSITION":13,
				"NORMAL":14,
				"TEXCOORD_0":15
			},
			"indices":12
		}]
	},
	{
		"name":"PanneauxSolaires",
		"primitives":[{
			"attributes":{
				"POSITION":17,
				"NORMAL":18,
				"TEXCOORD_0":19
			},
			"indices":16
		}]
	}],
	"accessors":[{
		"bufferView":0,
		"type":"SCALAR",
		"componentType":5123,
		"count":26820,
		"byteOffset":0,
		"min":[0],
		"max":[5436]
	},
	{
		"bufferView":1,
		"type":"VEC3",
		"componentType":5126,
		"count":5437,
		"byteOffset":0,
		"min":[-17.324874877929689,
		-22.115074157714845,
		-17.22996711730957],
		"max":[17.324874877929689,
		96.54943084716797,
		17.22996711730957]
	},
	{
		"bufferView":1,
		"type":"VEC3",
		"componentType":5126,
		"count":5437,
		"byteOffset":12,
		"min":[-1.0,
		-1.0,
		-0.9975719451904297],
		"max":[1.0,
		1.0,
		0.9975719451904297]
	},
	{
		"bufferView":1,
		"type":"VEC2",
		"componentType":5126,
		"count":5437,
		"byteOffset":24,
		"min":[0.0,
		-0.030223604291677476],
		"max":[1.0,
		1.0302236080169678]
	},
	{
		"bufferView":2,
		"type":"SCALAR",
		"componentType":5123,
		"count":21504,
		"byteOffset":0,
		"min":[0],
		"max":[3926]
	},
	{
		"bufferView":3,
		"type":"VEC3",
		"componentType":5126,
		"count":3927,
		"byteOffset":0,
		"min":[-18.124574661254884,
		-34.504058837890628,
		-18.124574661254884],
		"max":[18.124574661254884,
		34.23978042602539,
		18.124574661254884]
	},
	{
		"bufferView":3,
		"type":"VEC3",
		"componentType":5126,
		"count":3927,
		"byteOffset":12,
		"min":[-1.0,
		-0.99997878074646,
		-1.0],
		"max":[1.0,
		0.9999787211418152,
		1.0]
	},
	{
		"bufferView":3,
		"type":"VEC2",
		"componentType":5126,
		"count":3927,
		"byteOffset":24,
		"min":[0.0,
		0.0],
		"max":[1.0,
		1.0]
	},
	{
		"bufferView":4,
		"type":"SCALAR",
		"componentType":5123,
		"count":63936,
		"byteOffset":0,
		"min":[0],
		"max":[11157]
	},
	{
		"bufferView":5,
		"type":"VEC3",
		"componentType":5126,
		"count":11158,
		"byteOffset":0,
		"min":[-23.780797958374025,
		-1.7200111150741578,
		-23.780797958374025],
		"max":[23.780797958374025,
		22.238801956176759,
		23.780797958374025]
	},
	{
		"bufferView":5,
		"type":"VEC3",
		"componentType":5126,
		"count":11158,
		"byteOffset":12,
		"min":[-0.9999305605888367,
		-1.0,
		-0.9999305605888367],
		"max":[0.9999306201934815,
		1.0,
		0.9999305605888367]
	},
	{
		"bufferView":5,
		"type":"VEC2",
		"componentType":5126,
		"count":11158,
		"byteOffset":24,
		"min":[0.0,
		0.0173611082136631],
		"max":[1.0,
		0.4982638955116272]
	},
	{
		"bufferView":6,
		"type":"SCALAR",
		"componentType":5123,
		"count":1092,
		"byteOffset":0,
		"min":[0],
		"max":[297]
	},
	{
		"bufferView":7,
		"type":"VEC3",
		"componentType":5126,
		"count":298,
		"byteOffset":0,
		"min":[-9.835200309753418,
		-9.835200309753418,
		-5.442016124725342],
		"max":[9.835200309753418,
		9.835200309753418,
		5.442016124725342]
	},
	{
		"bufferView":7,
		"type":"VEC3",
		"componentType":5126,
		"count":298,
		"byteOffset":12,
		"min":[-0.9977266192436218,
		-0.9977266192436218,
		-0.983273983001709],
		"max":[0.9977266192436218,
		0.9977266192436218,
		0.999933123588562]
	},
	{
		"bufferView":7,
		"type":"VEC2",
		"componentType":5126,
		"count":298,
		"byteOffset":24,
		"min":[0.0,
		0.0],
		"max":[1.0,
		1.0]
	},
	{
		"bufferView":8,
		"type":"SCALAR",
		"componentType":5123,
		"count":6000,
		"byteOffset":0,
		"min":[0],
		"max":[1431]
	},
	{
		"bufferView":9,
		"type":"VEC3",
		"componentType":5126,
		"count":1432,
		"byteOffset":0,
		"min":[-86.57622528076172,
		-1.0298974514007569,
		-18.60626983642578],
		"max":[86.57622528076172,
		1.4797430038452149,
		18.60626983642578]
	},
	{
		"bufferView":9,
		"type":"VEC3",
		"componentType":5126,
		"count":1432,
		"byteOffset":12,
		"min":[-1.0,
		-1.0,
		-1.0],
		"max":[1.0,
		1.0,
		1.0]
	},
	{
		"bufferView":9,
		"type":"VEC2",
		"componentType":5126,
		"count":1432,
		"byteOffset":24,
		"min":[0.0,
		0.0],
		"max":[1.0,
		1.0]
	}]
}